<svg width="1921" height="84" viewBox="0 0 1921 84" fill="none" xmlns="http://www.w3.org/2000/svg">
<rect x="0.333496" width="1920" height="84" fill="white" fill-opacity="0.2"/>
<path d="M264.475 41.7548L260.402 45.7651L256.333 41.7548L260.402 37.7445L264.475 41.7548ZM274.348 32.0171L281.32 38.8928L285.389 34.8825L274.348 24L263.306 34.8825L267.375 38.8928L274.348 32.0171ZM288.296 37.7445L284.227 41.7548L288.296 45.7651L292.362 41.7548L288.296 37.7445ZM274.348 51.4926L267.375 44.6203L263.306 48.6271L274.348 59.5096L285.389 48.6271L281.32 44.6203L274.348 51.4926ZM274.348 45.7651L278.416 41.7548L274.348 37.7445L270.279 41.7548L274.348 45.7651ZM317.288 46.1502V46.0947C317.288 43.479 315.881 42.1711 313.589 41.3108C314.997 40.5302 316.187 39.3056 316.187 37.1097V37.0542C316.187 33.9945 313.702 32.0171 309.665 32.0171H300.499V51.4926H309.897C314.357 51.4926 317.295 49.7129 317.295 46.1502H317.288ZM311.868 37.8243C311.868 39.271 310.654 39.885 308.735 39.885H304.734V35.7741H309.024C310.858 35.7741 311.875 36.4957 311.875 37.7758L311.868 37.8243ZM312.97 45.6159C312.97 47.0625 311.812 47.7286 309.89 47.7286H304.734V43.4512H309.756C311.988 43.4512 312.977 44.2595 312.977 45.5674L312.97 45.6159ZM326.422 51.4926V32.0171H322.061V51.4926H326.422ZM349.79 51.4926V32.0171H345.485V44.0097L336.228 32.0171H332.219V51.4926H336.51V39.1114L346.076 51.4926H349.79ZM373.868 51.4926L365.386 31.8783H361.377L352.912 51.4926H357.343L359.156 47.125H367.512L369.317 51.4926H373.868ZM365.967 43.3402H360.701L363.327 37.0264L365.967 43.3402ZM394.589 51.4926V32.0171H390.284V44.0097L381.024 32.0171H377.019V51.4926H381.306V39.1114L390.876 51.4926H394.589ZM417.027 48.3496L414.264 45.5951C412.712 46.9827 411.329 47.8743 409.069 47.8743C405.683 47.8743 403.339 45.099 403.339 41.7548V41.6993C403.339 38.362 405.74 35.6353 409.069 35.6353C411.044 35.6353 412.589 36.4679 414.124 37.8313L416.88 34.6883C415.046 32.9086 412.818 31.684 409.09 31.684C403.022 31.684 398.788 36.2181 398.788 41.7444V41.7999C398.788 47.3921 403.107 51.8152 408.922 51.8152C412.726 51.8256 414.983 50.49 417.013 48.3496H417.027ZM435.577 51.4926V47.6766H424.834V43.5796H434.151V39.7636H424.834V35.8296H435.422V32.0136H420.516V51.4891L435.577 51.4926Z" fill="#B6B3EB"/>
<mask id="mask0_355_159" style="mask-type:luminance" maskUnits="userSpaceOnUse" x="630" y="24" width="81" height="32">
<path d="M630.729 24V30.5332H635.196V49.1096H630.85V55.5641H646.395V49.1096H641.928V30.5332H646.274V24H630.729ZM674.974 24.0787V30.5332H679.441V49.1096H675.096V55.5641H686.174V37.6048L692.775 55.5578L692.909 55.561L699.392 37.6048V55.5641H710.591V49.1096H706.123V30.5332H710.469V24.0787H697.984L692.815 38.4746L687.58 24.0787H674.974Z" fill="white"/>
<path d="M648.477 24.0798V30.5343H652.944V40.7671H670.139V38.8049C670.139 38.8049 671.578 37.6996 672.036 36.6508L672.956 34.6156C672.956 34.6156 673.384 33.4765 673.384 32.4585L673.199 30.4234C673.199 30.4234 672.911 28.7654 672.407 28.2723L670.629 26.234C670.629 26.234 668.366 24.0798 665.369 24.0798H648.477ZM659.676 30.5343H666.224V36.5166H659.676V30.5343Z" fill="white"/>
<path d="M648.477 55.5642V49.1097H652.944V38.8769H670.139V40.8391C670.139 40.8391 671.578 41.9444 672.036 42.9933L672.956 45.0284C672.956 45.0284 673.384 46.1675 673.384 47.1855L673.199 49.2207C673.199 49.2207 672.911 50.8786 672.407 51.3718L670.629 53.4101C670.629 53.4101 668.366 55.5642 665.369 55.5642H648.477ZM659.676 49.1097H666.224V43.1275H659.676V49.1097Z" fill="white"/>
</mask>
<g mask="url(#mask0_355_159)">
<path d="M630.729 25.1558H712.987V29.3458H630.729M630.729 33.5359H708.595V37.7268H630.729V41.9161H708.595V46.1054H630.729M630.729 50.2962H712.987V54.4871H630.729" fill="#B6B3EB"/>
<path d="M630.729 25.1558H712.987V29.3458H630.729M630.729 33.5359H708.595V37.7268H630.729V41.9161H708.595V46.1054H630.729M630.729 50.2962H712.987V54.4871H630.729" stroke="#B6B3EB" stroke-width="25.2648"/>
</g>
<path fill-rule="evenodd" clip-rule="evenodd" d="M947.57 55.1111H952.539V41.5057H955.208C962.202 41.5057 971.497 40.9606 971.497 33.0699C971.497 25.088 962.755 24.453 955.76 24.453H941.771V25.2692C946.742 25.8136 947.57 26.5399 947.57 29.3508V55.1111ZM952.539 29.3508C952.539 26.6298 952.815 26.2674 957.509 26.2674C962.662 26.2674 965.791 28.5347 965.791 33.0699C965.791 38.9659 960.454 39.782 955.024 39.782H952.539V29.3508ZM976.835 29.8952C976.835 26.1767 976.007 25.905 971.037 25.2692V24.453H982.632L1000.76 49.3971H1000.85V24.453H1003.89V55.1111H999.473L979.963 28.4448H979.871V55.1111H976.835V29.8952ZM1036.47 54.2941C1033.71 55.0205 1031.04 55.5641 1025.61 55.5641C1014.75 55.5641 1008.86 48.0366 1008.86 38.7839C1008.86 30.5302 1012.36 24 1024.23 24C1032.97 24 1036.1 27.6272 1036.47 30.7114H1030.86C1030.58 29.2603 1029.57 26.0854 1023.86 26.0854C1017.7 26.0854 1014.48 30.6215 1014.48 37.6053C1014.48 44.0456 1016.13 53.5693 1028.83 53.5693C1032.24 53.5693 1035.83 52.5712 1036.47 52.39V54.2941Z" fill="#B6B3EB"/>
<path fill-rule="evenodd" clip-rule="evenodd" d="M929.668 41.9622H926.068C926.218 41.593 926.144 41.0761 925.843 40.4842L923.818 37.1584L920.443 31.3179C920.443 31.3179 919.169 28.9526 917.294 27.5485C918.494 27.9921 933.643 36.7142 933.643 36.7142C936.119 38.1927 938.293 41.8883 929.668 41.9622ZM918.268 51.3505C915.793 52.7546 911.368 52.7546 915.643 45.3635C916.393 44.1058 917.443 42.2587 917.443 42.2587C917.743 42.6279 918.193 42.8494 918.868 42.8494H929.668C929.668 42.8494 932.369 42.9232 934.544 42.0372C933.569 42.7756 918.268 51.3505 918.268 51.3505ZM913.094 30.9481C913.094 28.1398 915.344 24.3692 919.694 31.6877C920.443 33.0186 921.493 34.7925 921.493 34.7925C921.043 34.8658 920.668 35.1623 920.294 35.7537L918.343 39.1538L914.893 44.9193C914.893 44.9193 913.468 47.2107 913.169 49.5772C913.018 48.2456 913.094 30.9481 913.094 30.9481ZM921.718 24C912.868 24 905.743 31.0225 905.743 39.7452C905.743 48.4672 912.868 55.5641 921.718 55.5641C930.569 55.5641 937.769 48.4672 937.769 39.7452C937.769 31.0225 930.569 24 921.718 24Z" fill="#B6B3EB"/>
<path d="M934.631 53.7897H934.906C935.194 53.7897 935.376 53.6349 935.376 53.4001C935.376 53.1359 935.181 53.0198 934.897 53.0161C934.767 53.0161 934.675 53.0288 934.631 53.0409V53.7897ZM934.363 52.8558C934.499 52.8279 934.693 52.8123 934.879 52.8123C935.166 52.8123 935.351 52.8643 935.481 52.9804C935.586 53.0712 935.645 53.2115 935.645 53.3693C935.645 53.641 935.472 53.8206 935.253 53.8938V53.9028C935.413 53.9573 935.509 54.1037 935.558 54.3166C935.626 54.6027 935.676 54.8005 935.719 54.8798H935.441C935.406 54.8192 935.361 54.645 935.302 54.3898C935.24 54.1061 935.128 54.0002 934.884 53.9905H934.631V54.8798H934.363V52.8558Z" fill="#B6B3EB"/>
<path d="M933.504 53.857C933.506 54.6579 934.164 55.3044 934.975 55.3057C935.788 55.3044 936.443 54.6578 936.446 53.8569C936.443 53.0573 935.788 52.4112 934.975 52.4095C934.164 52.4113 933.506 53.0573 933.504 53.857ZM933.247 53.857C933.247 52.917 934.02 52.1548 934.975 52.1548C935.93 52.1548 936.706 52.917 936.706 53.8569C936.706 54.7988 935.93 55.5621 934.975 55.5621C934.02 55.5621 933.247 54.7988 933.247 53.857Z" fill="#B6B3EB"/>
<mask id="mask1_355_159" style="mask-type:luminance" maskUnits="userSpaceOnUse" x="1231" y="27" width="33" height="33">
<path d="M1251.25 53.7567C1253.35 53.7312 1255.35 53.4278 1257.11 52.843C1257.56 52.6953 1257.98 52.5317 1258.38 52.3549C1257.89 53.5377 1257.17 54.5244 1256.23 55.2578C1254.37 56.6051 1252.18 57.5293 1249.8 57.8819C1250.4 56.8689 1250.88 55.4372 1251.25 53.7567ZM1241.35 56.6306C1241.31 56.5945 1241.26 56.5611 1241.2 56.5365C1240.38 56.139 1240.04 54.3213 1240.47 51.5415C1242.06 52.2459 1243.79 52.8043 1245.61 53.1868C1246.99 53.477 1248.37 53.6564 1249.71 53.7259C1249.05 56.547 1248.21 58.0288 1247.65 58.0288C1247.61 58.0288 1247.58 58.0349 1247.54 58.0402C1245.33 58.0253 1243.23 57.5231 1241.35 56.6306ZM1233.67 47.644C1233.54 47.167 1233.46 46.679 1233.43 46.1869C1233.93 46.8851 1234.53 47.5657 1235.25 48.2235C1236.35 49.2155 1237.64 50.1037 1239.08 50.8652C1238.79 52.4886 1238.7 53.9598 1238.89 55.1453C1236.4 53.2932 1234.54 50.6718 1233.67 47.644ZM1252.18 43.7017C1252.18 43.1283 1252.18 42.5523 1252.16 41.9789C1254.01 41.8576 1255.73 41.3827 1257.13 40.5869C1258.43 43.123 1259.13 45.799 1259.12 48.3247C1259.12 49.0563 1259.06 49.7519 1258.94 50.4088C1258.27 50.8125 1257.5 51.1625 1256.64 51.4509C1255.1 51.961 1253.37 52.2389 1251.53 52.2855C1251.97 49.6763 1252.18 46.6468 1252.18 43.7017ZM1245.93 51.7525C1244.08 51.363 1242.34 50.7852 1240.76 50.0544C1241.28 47.7557 1242.24 44.9707 1243.77 41.8787C1243.99 41.4311 1244.22 40.9905 1244.45 40.5596C1245.52 41.0327 1246.69 41.4082 1247.91 41.665C1248.83 41.8611 1249.76 41.9675 1250.67 41.9983C1250.69 42.5488 1250.69 43.116 1250.69 43.7017C1250.69 47.1586 1250.41 50.0281 1250.01 52.2705C1248.68 52.2134 1247.31 52.0419 1245.93 51.7525ZM1236.27 47.1463C1235 45.9943 1234.13 44.7737 1233.69 43.5619C1234.04 42.2041 1234.72 40.841 1235.72 39.5351C1236.67 38.2969 1237.85 37.1818 1239.2 36.2233C1239.59 36.9189 1240.14 37.5978 1240.84 38.2415C1241.5 38.8527 1242.27 39.4067 1243.13 39.8913C1242.89 40.3355 1242.66 40.7835 1242.44 41.235C1241.11 43.9039 1240.04 46.7681 1239.4 49.3659C1238.23 48.7125 1237.17 47.9685 1236.27 47.1463ZM1251.17 33.5042C1252.87 34.7468 1254.42 36.3499 1255.72 38.2248C1255.96 38.5801 1256.19 38.9415 1256.42 39.3065C1255.23 39.9845 1253.72 40.3899 1252.1 40.5033C1251.96 37.9698 1251.65 35.5321 1251.17 33.5042ZM1248.22 40.2298C1247.14 40.0038 1246.12 39.6776 1245.17 39.2687C1246.56 36.8723 1248.08 34.789 1249.58 33.2404C1250.05 35.0572 1250.44 37.5002 1250.61 40.5288C1249.82 40.4963 1249.02 40.3987 1248.22 40.2298ZM1241.85 37.1704C1241.24 36.6023 1240.77 36.0096 1240.46 35.4143C1241.85 34.5868 1243.4 33.9123 1245.04 33.4242C1246.02 33.134 1247.01 32.9194 1248 32.7708C1246.57 34.3458 1245.15 36.3464 1243.84 38.6065C1243.1 38.1817 1242.43 37.7007 1241.85 37.1704ZM1238.65 32.4929C1238.63 32.5668 1238.61 32.6424 1238.59 32.7198C1238.44 33.4119 1238.46 34.1216 1238.64 34.8251C1237.03 35.9146 1235.64 37.203 1234.53 38.6504C1234.19 39.091 1233.89 39.5413 1233.62 39.9942C1234.44 36.9884 1236.24 34.3731 1238.65 32.4929ZM1240.05 33.0258C1240.21 32.2643 1240.68 31.5836 1241.4 31.0208C1243.14 30.509 1245.16 30.6321 1247.28 31.3989C1246.39 31.552 1245.49 31.756 1244.61 32.0189C1242.97 32.5043 1241.42 33.1692 1240 33.9765C1239.97 33.6555 1239.98 33.3371 1240.05 33.0258ZM1252.13 31.092C1252.64 30.7658 1253.11 30.5424 1253.51 30.4501C1254.25 30.7447 1255 31.1219 1255.7 31.5986C1254.57 31.3207 1253.37 31.1518 1252.13 31.092ZM1249.62 29.5206C1250.23 29.5874 1250.87 29.6894 1251.54 29.8415C1251.12 30.0614 1250.69 30.3358 1250.25 30.6655C1250.06 30.232 1249.85 29.8503 1249.62 29.5206ZM1248.01 30.0966C1247.34 29.8424 1246.67 29.6454 1246.01 29.5047C1246.54 29.4467 1247.07 29.4133 1247.61 29.4133C1247.87 29.4159 1248.18 29.7167 1248.51 30.2979C1248.34 30.2285 1248.18 30.1599 1248.01 30.0966ZM1231.62 43.7272C1231.62 45.2274 1231.84 46.6776 1232.24 48.0538C1232.26 48.1461 1232.29 48.2385 1232.31 48.3308C1232.32 48.3475 1232.33 48.3634 1232.33 48.3818C1234.35 54.8199 1240.45 59.5097 1247.64 59.5097C1250.96 59.5097 1254.05 58.5054 1256.61 56.7906C1256.64 56.7757 1256.66 56.7633 1256.69 56.7475C1256.84 56.6455 1256.99 56.5382 1257.13 56.4257C1260.08 54.2808 1262.25 51.1651 1263.17 47.5605C1263.22 47.3951 1263.26 47.2263 1263.3 47.0557C1263.31 47.0144 1263.31 46.9757 1263.32 46.9352C1263.53 45.8984 1263.65 44.8256 1263.65 43.7281C1263.65 41.5982 1263.23 39.5307 1262.39 37.5855C1262.23 37.2117 1261.79 37.0367 1261.41 37.1959C1261.03 37.3524 1260.86 37.7842 1261.02 38.1571C1261.77 39.9203 1262.16 41.7952 1262.16 43.7281C1262.16 44.9126 1262.01 46.0629 1261.73 47.1647C1261.51 47.8595 1261.13 48.5023 1260.59 49.0862C1260.6 48.8374 1260.61 48.5858 1260.61 48.3282C1260.62 45.5124 1259.83 42.5382 1258.36 39.7426C1259.44 38.8334 1260.12 37.7095 1260.36 36.4528C1260.43 36.0545 1260.17 35.6719 1259.76 35.5981C1259.36 35.5233 1258.97 35.7871 1258.89 36.1864C1258.74 37.0174 1258.3 37.7798 1257.62 38.4271C1257.4 38.0797 1257.18 37.7359 1256.95 37.3973C1255.64 35.5084 1254.09 33.8744 1252.39 32.5703C1254.63 32.7163 1256.7 33.2518 1258.37 34.1717C1258.63 34.3185 1258.98 34.3141 1259.23 34.1128C1259.54 33.8533 1259.59 33.389 1259.32 33.0777C1256.92 29.7703 1252.77 27.9456 1247.63 27.9456C1238.81 27.9447 1231.62 35.0247 1231.62 43.7272Z" fill="white"/>
</mask>
<g mask="url(#mask1_355_159)">
<path d="M1231.62 27.9446H1263.65V59.5096H1231.62V27.9446Z" fill="#B6B3EB"/>
</g>
<path d="M1267.17 34.9815H1275.26V36.6163H1272.29V44.8158H1270.14V36.6163H1267.17L1267.17 34.9815ZM1276.39 44.8151V34.9808H1278.54V38.8625H1282.31V34.9809H1284.48V44.8151H1282.34V40.4964H1278.54V44.8151H1276.39ZM1286.22 34.9815H1292.91V36.6163H1288.37V38.9186H1292.63V40.5525H1288.37V43.182H1293.07V44.816H1286.23L1286.22 34.9815ZM1303.56 34.9815H1305.98L1307.72 42.3783H1307.74L1309.35 34.9815H1311.39L1308.85 44.8158H1306.47L1304.68 37.3233H1304.65L1302.71 44.8158H1300.28L1297.85 34.9815H1300.06L1301.6 42.3783H1301.63L1303.56 34.9815ZM1312.12 39.899C1312.12 36.9979 1313.61 34.7756 1316.92 34.7756C1320.22 34.7756 1321.71 36.997 1321.71 39.899C1321.71 42.801 1320.22 45.0189 1316.92 45.0189C1313.61 45.0189 1312.12 42.8 1312.12 39.899ZM1314.4 39.899C1314.4 41.5857 1314.8 43.4931 1316.91 43.4931C1319.03 43.4931 1319.43 41.5857 1319.43 39.899C1319.43 38.2088 1319.03 36.3006 1316.91 36.3006C1314.8 36.3006 1314.4 38.2098 1314.4 39.899ZM1325.26 44.8151H1323.12V34.9808H1327.36C1329.08 34.9941 1330.83 35.5383 1330.83 37.5424C1330.83 38.8219 1329.99 39.668 1328.76 39.9256V39.9522C1330.4 40.1289 1330.4 41.1227 1330.58 42.4857C1330.68 43.1127 1330.76 44.2709 1331.16 44.8135H1328.8C1328.62 43.9428 1328.52 43.0573 1328.43 42.1708C1328.37 41.6272 1328.23 40.878 1327.53 40.8516H1325.26V44.8133L1325.26 44.8151ZM1325.26 39.2168H1327.06C1328 39.2002 1328.55 38.7401 1328.55 37.867C1328.55 36.9963 1328 36.6278 1327.06 36.6147H1325.26V39.2168ZM1332.47 44.8151V34.9808H1334.62V43.1811H1338.94V44.8151H1332.47ZM1340.1 34.9815H1343.5C1346.61 34.955 1348.55 36.4792 1348.55 39.8992C1348.55 43.3174 1346.61 44.8423 1343.5 44.8152H1340.1V34.9815ZM1342.24 43.181H1343.35C1345.89 43.2077 1346.27 41.4637 1346.27 39.899C1346.27 38.3319 1345.89 36.5889 1343.35 36.6162H1342.24V43.181ZM1353.97 44.8151V34.9808H1357.72C1359.5 34.8718 1361.32 35.6087 1361.32 37.5285C1361.32 38.604 1360.56 39.3542 1359.57 39.6795V39.7062C1360.83 39.9657 1361.77 40.8239 1361.77 42.2661C1361.77 44.214 1359.28 44.9238 1357.74 44.8138L1353.97 44.8151ZM1357.79 43.1803C1358.8 43.1803 1359.49 43.0028 1359.49 41.8726C1359.49 40.7426 1358.8 40.565 1357.79 40.565H1356.11V43.1813L1357.79 43.1803ZM1357.79 38.9319C1358.68 38.9319 1359.18 38.5636 1359.18 37.7738C1359.18 36.9824 1358.68 36.6165 1357.79 36.6165H1356.11V38.9328L1357.79 38.9319ZM1362.43 44.8151L1366.04 34.9808H1368.58L1372.05 44.8151H1369.9L1369.18 42.7309H1365.22L1364.48 44.8151H1362.43ZM1368.64 41.0971L1367.27 36.9015H1367.24L1365.78 41.0971H1368.64ZM1379.13 44.8151L1375.19 36.642L1375.16 36.6686V44.8136H1373.16V34.9793H1376.33L1380.14 42.7163L1380.16 42.6865V34.9774H1382.17V44.8124L1379.13 44.8151ZM1386.05 39.2309H1386.08L1389.4 34.9808H1391.9L1388.24 39.3805L1392.22 44.8152H1389.55L1386.08 39.8025H1386.06V44.8152H1383.91V34.9806H1386.06L1386.05 39.2309Z" fill="#B6B3EB"/>
<path fill-rule="evenodd" clip-rule="evenodd" d="M1664.33 40.3089C1664.33 34.9148 1661.68 30.6584 1656.62 30.6584C1651.53 30.6584 1648.45 34.9148 1648.45 40.2668C1648.45 46.6091 1652.08 49.8119 1657.3 49.8119C1659.84 49.8119 1661.77 49.2429 1663.22 48.4422V44.2281C1661.77 44.9445 1660.1 45.387 1657.98 45.387C1655.91 45.387 1654.07 44.6706 1653.84 42.1842H1664.29C1664.29 41.9103 1664.33 40.8146 1664.33 40.3089ZM1653.77 38.3072C1653.77 35.9262 1655.25 34.9358 1656.59 34.9358C1657.9 34.9358 1659.29 35.9262 1659.29 38.3072H1653.77Z" fill="#B6B3EB"/>
<path fill-rule="evenodd" clip-rule="evenodd" d="M1640.2 30.6584C1638.1 30.6584 1636.76 31.6277 1636.01 32.302L1635.73 30.9956H1631.03V55.5642L1636.37 54.4474L1636.39 48.4844C1637.16 49.0322 1638.29 49.8118 1640.18 49.8118C1644 49.8118 1647.49 46.7776 1647.49 40.0982C1647.47 33.9876 1643.94 30.6584 1640.2 30.6584ZM1638.91 45.1763C1637.65 45.1763 1636.9 44.7338 1636.39 44.1859L1636.37 36.3686C1636.93 35.7576 1637.7 35.3362 1638.91 35.3362C1640.86 35.3362 1642.21 37.4854 1642.21 40.2457C1642.21 43.0692 1640.88 45.1763 1638.91 45.1763Z" fill="#B6B3EB"/>
<path fill-rule="evenodd" clip-rule="evenodd" d="M1629.04 24L1623.67 25.1168V29.4152L1629.04 28.2774V24Z" fill="#B6B3EB"/>
<path fill-rule="evenodd" clip-rule="evenodd" d="M1623.67 31.0166H1629.04V49.4536H1623.67V31.0166Z" fill="#B6B3EB"/>
<path fill-rule="evenodd" clip-rule="evenodd" d="M1617.92 32.5759L1617.58 31.0166H1612.96V49.4536H1618.31V36.9586C1619.57 35.3362 1621.7 35.6311 1622.37 35.8629V31.0166C1621.68 30.7638 1619.18 30.3002 1617.92 32.5759Z" fill="#B6B3EB"/>
<path fill-rule="evenodd" clip-rule="evenodd" d="M1607.23 26.4443L1602.02 27.54L1601.99 44.4178C1601.99 47.5363 1604.37 49.833 1607.53 49.833C1609.28 49.833 1610.57 49.5169 1611.27 49.1376V44.8603C1610.59 45.1342 1607.21 46.1034 1607.21 42.985V35.5048H1611.27V31.0167H1607.21L1607.23 26.4443Z" fill="#B6B3EB"/>
<path fill-rule="evenodd" clip-rule="evenodd" d="M1592.78 36.3686C1592.78 35.5469 1593.46 35.2308 1594.6 35.2308C1596.22 35.2308 1598.27 35.7155 1599.9 36.5794V31.6277C1598.12 30.9324 1596.37 30.6584 1594.6 30.6584C1590.26 30.6584 1587.37 32.892 1587.37 36.6215C1587.37 42.4371 1595.49 41.5099 1595.49 44.0174C1595.49 44.9866 1594.64 45.3027 1593.44 45.3027C1591.67 45.3027 1589.4 44.5863 1587.61 43.617V48.6319C1589.59 49.4747 1591.6 49.8329 1593.44 49.8329C1597.89 49.8329 1600.95 47.6626 1600.95 43.8909C1600.93 37.6118 1592.78 38.7286 1592.78 36.3686Z" fill="#B6B3EB"/>
</svg>
