<svg width="144" height="52" viewBox="0 0 144 52" fill="none" xmlns="http://www.w3.org/2000/svg">
<rect x="0.333496" width="143" height="52" rx="8" fill="white"/>
<path d="M37.7575 33.192C37.0002 33.192 36.3068 33.0533 35.6775 32.776C35.0482 32.488 34.5148 32.0987 34.0775 31.608C33.6402 31.1173 33.3255 30.568 33.1335 29.96L34.4935 29.4C34.7815 30.168 35.2082 30.76 35.7735 31.176C36.3495 31.5813 37.0215 31.784 37.7895 31.784C38.2588 31.784 38.6695 31.7093 39.0215 31.56C39.3735 31.4107 39.6455 31.2027 39.8375 30.936C40.0402 30.6587 40.1415 30.3387 40.1415 29.976C40.1415 29.4747 39.9975 29.08 39.7095 28.792C39.4322 28.4933 39.0215 28.2693 38.4775 28.12L36.2855 27.448C35.4215 27.1813 34.7602 26.76 34.3015 26.184C33.8428 25.608 33.6135 24.9467 33.6135 24.2C33.6135 23.5493 33.7682 22.9787 34.0775 22.488C34.3975 21.9867 34.8348 21.5973 35.3895 21.32C35.9548 21.032 36.5948 20.888 37.3095 20.888C38.0242 20.888 38.6695 21.016 39.2455 21.272C39.8322 21.528 40.3282 21.8747 40.7335 22.312C41.1388 22.7387 41.4375 23.2293 41.6295 23.784L40.2855 24.344C40.0295 23.672 39.6455 23.1653 39.1335 22.824C38.6215 22.472 38.0188 22.296 37.3255 22.296C36.8988 22.296 36.5202 22.3707 36.1895 22.52C35.8695 22.6587 35.6188 22.8667 35.4375 23.144C35.2668 23.4107 35.1815 23.7307 35.1815 24.104C35.1815 24.5413 35.3202 24.9307 35.5975 25.272C35.8748 25.6133 36.2962 25.8747 36.8615 26.056L38.8615 26.648C39.8002 26.936 40.5095 27.3467 40.9895 27.88C41.4695 28.4133 41.7095 29.0747 41.7095 29.864C41.7095 30.5147 41.5388 31.0907 41.1975 31.592C40.8668 32.0933 40.4028 32.488 39.8055 32.776C39.2188 33.0533 38.5362 33.192 37.7575 33.192ZM46.8852 33.192C46.2666 33.192 45.7066 33.048 45.2052 32.76C44.7146 32.472 44.3306 32.072 44.0532 31.56C43.7866 31.0373 43.6532 30.44 43.6532 29.768V24.376H45.1412V29.608C45.1412 30.0347 45.2266 30.408 45.3972 30.728C45.5786 31.048 45.8239 31.2987 46.1332 31.48C46.4532 31.6613 46.8159 31.752 47.2212 31.752C47.6266 31.752 47.9839 31.6613 48.2932 31.48C48.6132 31.2987 48.8586 31.0373 49.0292 30.696C49.2106 30.3547 49.3012 29.9493 49.3012 29.48V24.376H50.8052V33H49.3492V31.32L49.5892 31.464C49.3866 32.008 49.0399 32.4347 48.5492 32.744C48.0692 33.0427 47.5146 33.192 46.8852 33.192ZM57.5745 33.192C56.8812 33.192 56.2465 33.0373 55.6705 32.728C55.1052 32.4187 54.6678 31.9813 54.3585 31.416L54.5665 31.16V33H53.1105V20.888H54.5985V26.232L54.3745 25.864C54.6945 25.352 55.1318 24.9467 55.6865 24.648C56.2412 24.3387 56.8758 24.184 57.5905 24.184C58.4012 24.184 59.1265 24.3813 59.7665 24.776C60.4172 25.1707 60.9292 25.7093 61.3025 26.392C61.6758 27.064 61.8625 27.832 61.8625 28.696C61.8625 29.5387 61.6758 30.3013 61.3025 30.984C60.9292 31.6667 60.4172 32.2053 59.7665 32.6C59.1265 32.9947 58.3958 33.192 57.5745 33.192ZM57.4625 31.752C58.0065 31.752 58.4918 31.6187 58.9185 31.352C59.3452 31.0853 59.6758 30.7227 59.9105 30.264C60.1558 29.7947 60.2785 29.272 60.2785 28.696C60.2785 28.0987 60.1558 27.576 59.9105 27.128C59.6758 26.6693 59.3452 26.3067 58.9185 26.04C58.4918 25.7627 58.0065 25.624 57.4625 25.624C56.9185 25.624 56.4278 25.7573 55.9905 26.024C55.5638 26.2907 55.2225 26.6587 54.9665 27.128C54.7212 27.5867 54.5985 28.1093 54.5985 28.696C54.5985 29.272 54.7212 29.7947 54.9665 30.264C55.2225 30.7227 55.5638 31.0853 55.9905 31.352C56.4278 31.6187 56.9185 31.752 57.4625 31.752ZM66.9016 33.192C66.0376 33.192 65.2856 32.9787 64.6456 32.552C64.0056 32.1253 63.5523 31.5493 63.2856 30.824L64.4696 30.248C64.715 30.76 65.051 31.1653 65.4776 31.464C65.9043 31.7627 66.379 31.912 66.9016 31.912C67.371 31.912 67.7603 31.8 68.0696 31.576C68.379 31.352 68.5336 31.0587 68.5336 30.696C68.5336 30.44 68.459 30.2373 68.3096 30.088C68.171 29.928 68.0003 29.8053 67.7976 29.72C67.595 29.624 67.4083 29.5547 67.2376 29.512L65.9416 29.144C65.163 28.92 64.5923 28.6 64.2296 28.184C63.8776 27.768 63.7016 27.2827 63.7016 26.728C63.7016 26.216 63.8296 25.7733 64.0856 25.4C64.3523 25.016 64.7096 24.7173 65.1576 24.504C65.6163 24.2907 66.1283 24.184 66.6936 24.184C67.451 24.184 68.1283 24.376 68.7256 24.76C69.3336 25.144 69.7656 25.6827 70.0216 26.376L68.8056 26.936C68.6136 26.488 68.3256 26.136 67.9416 25.88C67.5576 25.6133 67.1256 25.48 66.6456 25.48C66.2083 25.48 65.8616 25.592 65.6056 25.816C65.3496 26.0293 65.2216 26.3013 65.2216 26.632C65.2216 26.8773 65.2856 27.08 65.4136 27.24C65.5416 27.3893 65.6963 27.5067 65.8776 27.592C66.059 27.6667 66.235 27.7307 66.4056 27.784L67.8136 28.2C68.5176 28.4027 69.0616 28.7173 69.4456 29.144C69.8403 29.5707 70.0376 30.0827 70.0376 30.68C70.0376 31.16 69.9043 31.592 69.6376 31.976C69.371 32.36 69.003 32.6587 68.5336 32.872C68.0643 33.0853 67.5203 33.192 66.9016 33.192ZM75.9855 33.192C75.1428 33.192 74.3908 32.9947 73.7295 32.6C73.0788 32.2053 72.5668 31.6667 72.1935 30.984C71.8202 30.3013 71.6335 29.5333 71.6335 28.68C71.6335 27.816 71.8202 27.048 72.1935 26.376C72.5668 25.704 73.0788 25.1707 73.7295 24.776C74.3908 24.3813 75.1428 24.184 75.9855 24.184C76.5508 24.184 77.0788 24.2853 77.5695 24.488C78.0602 24.6907 78.4922 24.9627 78.8655 25.304C79.2388 25.6453 79.5108 26.0453 79.6815 26.504L78.3535 27.144C78.1508 26.696 77.8415 26.3333 77.4255 26.056C77.0095 25.768 76.5295 25.624 75.9855 25.624C75.4628 25.624 74.9882 25.7573 74.5615 26.024C74.1455 26.2907 73.8148 26.6533 73.5695 27.112C73.3242 27.5707 73.2015 28.0987 73.2015 28.696C73.2015 29.272 73.3242 29.7947 73.5695 30.264C73.8148 30.7227 74.1455 31.0853 74.5615 31.352C74.9882 31.6187 75.4628 31.752 75.9855 31.752C76.5295 31.752 77.0095 31.6133 77.4255 31.336C77.8415 31.048 78.1508 30.6693 78.3535 30.2L79.6815 30.872C79.5108 31.32 79.2388 31.72 78.8655 32.072C78.4922 32.4133 78.0602 32.6853 77.5695 32.888C77.0788 33.0907 76.5508 33.192 75.9855 33.192ZM81.6261 33V24.376H83.0821V25.96L82.9221 25.736C83.1248 25.2453 83.4341 24.8827 83.8501 24.648C84.2661 24.4027 84.7728 24.28 85.3701 24.28H85.8981V25.688H85.1461C84.5381 25.688 84.0475 25.88 83.6741 26.264C83.3008 26.6373 83.1141 27.1707 83.1141 27.864V33H81.6261ZM87.2199 33V24.376H88.7079V33H87.2199ZM87.2199 23V21.08H88.7079V23H87.2199ZM95.4807 33.192C94.7874 33.192 94.1527 33.0373 93.5767 32.728C93.0114 32.4187 92.5741 31.9813 92.2647 31.416L92.4727 31.16V33H91.0167V20.888H92.5047V26.232L92.2807 25.864C92.6007 25.352 93.0381 24.9467 93.5927 24.648C94.1474 24.3387 94.7821 24.184 95.4967 24.184C96.3074 24.184 97.0327 24.3813 97.6727 24.776C98.3234 25.1707 98.8354 25.7093 99.2087 26.392C99.5821 27.064 99.7687 27.832 99.7687 28.696C99.7687 29.5387 99.5821 30.3013 99.2087 30.984C98.8354 31.6667 98.3234 32.2053 97.6727 32.6C97.0327 32.9947 96.3021 33.192 95.4807 33.192ZM95.3687 31.752C95.9127 31.752 96.3981 31.6187 96.8247 31.352C97.2514 31.0853 97.5821 30.7227 97.8167 30.264C98.0621 29.7947 98.1847 29.272 98.1847 28.696C98.1847 28.0987 98.0621 27.576 97.8167 27.128C97.5821 26.6693 97.2514 26.3067 96.8247 26.04C96.3981 25.7627 95.9127 25.624 95.3687 25.624C94.8247 25.624 94.3341 25.7573 93.8967 26.024C93.4701 26.2907 93.1287 26.6587 92.8727 27.128C92.6274 27.5867 92.5047 28.1093 92.5047 28.696C92.5047 29.272 92.6274 29.7947 92.8727 30.264C93.1287 30.7227 93.4701 31.0853 93.8967 31.352C94.3341 31.6187 94.8247 31.752 95.3687 31.752ZM105.688 33.192C104.856 33.192 104.115 32.9947 103.464 32.6C102.813 32.2053 102.301 31.6667 101.928 30.984C101.555 30.2907 101.368 29.5173 101.368 28.664C101.368 27.8 101.549 27.032 101.912 26.36C102.285 25.688 102.787 25.16 103.416 24.776C104.056 24.3813 104.771 24.184 105.56 24.184C106.2 24.184 106.765 24.3013 107.256 24.536C107.757 24.76 108.179 25.0693 108.52 25.464C108.872 25.848 109.139 26.2907 109.32 26.792C109.512 27.2827 109.608 27.7947 109.608 28.328C109.608 28.4453 109.597 28.5787 109.576 28.728C109.565 28.8667 109.549 29 109.528 29.128H102.456V27.848H108.664L107.96 28.424C108.056 27.8693 108.003 27.3733 107.8 26.936C107.597 26.4987 107.299 26.152 106.904 25.896C106.509 25.64 106.061 25.512 105.56 25.512C105.059 25.512 104.6 25.64 104.184 25.896C103.768 26.152 103.443 26.52 103.208 27C102.984 27.4693 102.893 28.0293 102.936 28.68C102.893 29.3093 102.989 29.864 103.224 30.344C103.469 30.8133 103.811 31.1813 104.248 31.448C104.696 31.704 105.181 31.832 105.704 31.832C106.28 31.832 106.765 31.6987 107.16 31.432C107.555 31.1653 107.875 30.824 108.12 30.408L109.368 31.048C109.197 31.4427 108.931 31.8053 108.568 32.136C108.216 32.456 107.795 32.712 107.304 32.904C106.824 33.096 106.285 33.192 105.688 33.192Z" fill="#1D1C31"/>
</svg>
