<svg width="323" height="160" viewBox="0 0 323 160" fill="none" xmlns="http://www.w3.org/2000/svg">
<path d="M1.7415 66V54.08H3.0215V59.44H9.4215V54.08H10.7015V66H9.4215V60.64H3.0215V66H1.7415ZM17.3627 66.192C16.5521 66.192 15.8161 66 15.1547 65.616C14.4934 65.2213 13.9654 64.688 13.5707 64.016C13.1867 63.3333 12.9947 62.56 12.9947 61.696C12.9947 60.8427 13.1867 60.08 13.5707 59.408C13.9547 58.736 14.4721 58.208 15.1227 57.824C15.7841 57.4293 16.5307 57.232 17.3627 57.232C18.1947 57.232 18.9361 57.424 19.5867 57.808C20.2481 58.192 20.7654 58.72 21.1387 59.392C21.5227 60.064 21.7147 60.832 21.7147 61.696C21.7147 62.5707 21.5174 63.3493 21.1227 64.032C20.7281 64.704 20.2001 65.232 19.5387 65.616C18.8881 66 18.1627 66.192 17.3627 66.192ZM17.3627 64.992C17.9387 64.992 18.4561 64.848 18.9147 64.56C19.3841 64.272 19.7521 63.8773 20.0187 63.376C20.2961 62.8747 20.4347 62.3147 20.4347 61.696C20.4347 61.0773 20.2961 60.5227 20.0187 60.032C19.7521 59.5413 19.3841 59.152 18.9147 58.864C18.4561 58.576 17.9387 58.432 17.3627 58.432C16.7867 58.432 16.2641 58.576 15.7947 58.864C15.3361 59.152 14.9681 59.5413 14.6907 60.032C14.4134 60.5227 14.2747 61.0773 14.2747 61.696C14.2747 62.3147 14.4134 62.8747 14.6907 63.376C14.9681 63.8773 15.3361 64.272 15.7947 64.56C16.2641 64.848 16.7867 64.992 17.3627 64.992ZM23.8311 66V57.424H25.0311V59.056L24.8391 58.816C25.0738 58.3147 25.4205 57.9253 25.8791 57.648C26.3485 57.3707 26.8605 57.232 27.4151 57.232C28.0765 57.232 28.6738 57.4187 29.2071 57.792C29.7405 58.1653 30.1191 58.6507 30.3431 59.248L30.0071 59.264C30.2205 58.6027 30.5885 58.1013 31.1111 57.76C31.6445 57.408 32.2311 57.232 32.8711 57.232C33.4471 57.232 33.9751 57.3707 34.4551 57.648C34.9458 57.9253 35.3351 58.3093 35.6231 58.8C35.9218 59.28 36.0711 59.824 36.0711 60.432V66H34.8711V60.896C34.8711 60.3733 34.7751 59.9307 34.5831 59.568C34.4018 59.2053 34.1511 58.928 33.8311 58.736C33.5111 58.5333 33.1431 58.432 32.7271 58.432C32.3218 58.432 31.9538 58.5333 31.6231 58.736C31.2925 58.928 31.0311 59.2107 30.8391 59.584C30.6471 59.9467 30.5511 60.384 30.5511 60.896V66H29.3511V60.896C29.3511 60.3733 29.2551 59.9307 29.0631 59.568C28.8818 59.2053 28.6311 58.928 28.3111 58.736C27.9911 58.5333 27.6231 58.432 27.2071 58.432C26.7911 58.432 26.4178 58.5333 26.0871 58.736C25.7671 58.928 25.5111 59.2107 25.3191 59.584C25.1271 59.9467 25.0311 60.384 25.0311 60.896V66H23.8311ZM42.2664 66.192C41.4664 66.192 40.741 66 40.0904 65.616C39.4504 65.2213 38.9437 64.6827 38.5704 64C38.197 63.3173 38.0104 62.544 38.0104 61.68C38.0104 60.816 38.1917 60.0533 38.5544 59.392C38.917 58.72 39.4077 58.192 40.0264 57.808C40.6557 57.424 41.3597 57.232 42.1384 57.232C42.757 57.232 43.3064 57.3493 43.7864 57.584C44.277 57.808 44.693 58.1173 45.0344 58.512C45.3757 58.896 45.637 59.3333 45.8184 59.824C45.9997 60.304 46.0904 60.8 46.0904 61.312C46.0904 61.4187 46.085 61.5413 46.0744 61.68C46.0637 61.808 46.0477 61.9413 46.0264 62.08H38.7784V60.96H45.3384L44.7624 61.44C44.8584 60.8533 44.789 60.3307 44.5544 59.872C44.3304 59.4027 44.005 59.0347 43.5784 58.768C43.1517 58.4907 42.6717 58.352 42.1384 58.352C41.605 58.352 41.109 58.4907 40.6504 58.768C40.2024 59.0453 39.8504 59.4347 39.5944 59.936C39.3384 60.4267 39.237 61.0133 39.2904 61.696C39.237 62.3787 39.3437 62.976 39.6104 63.488C39.8877 63.9893 40.261 64.3787 40.7304 64.656C41.2104 64.9333 41.7224 65.072 42.2664 65.072C42.8957 65.072 43.4237 64.9227 43.8504 64.624C44.277 64.3253 44.6237 63.952 44.8904 63.504L45.9144 64.048C45.7437 64.432 45.4824 64.7893 45.1304 65.12C44.7784 65.44 44.357 65.7013 43.8664 65.904C43.3864 66.096 42.853 66.192 42.2664 66.192Z" fill="#1D1C31" fill-opacity="0.6"/>
<path d="M5.7575 111.192C5.00016 111.192 4.31216 111.048 3.6935 110.76C3.07483 110.472 2.55216 110.088 2.1255 109.608C1.69883 109.117 1.39483 108.579 1.2135 107.992L2.3655 107.56C2.64283 108.371 3.07483 108.989 3.6615 109.416C4.24816 109.832 4.94683 110.04 5.7575 110.04C6.2695 110.04 6.7175 109.96 7.1015 109.8C7.49616 109.629 7.80016 109.395 8.0135 109.096C8.22683 108.797 8.3335 108.451 8.3335 108.056C8.3335 107.469 8.1735 107.016 7.8535 106.696C7.5335 106.376 7.07483 106.131 6.4775 105.96L4.3335 105.32C3.49083 105.075 2.84016 104.664 2.3815 104.088C1.9335 103.512 1.7095 102.856 1.7095 102.12C1.7095 101.491 1.86416 100.936 2.1735 100.456C2.48283 99.9653 2.90416 99.5813 3.4375 99.304C3.9815 99.0267 4.59483 98.888 5.2775 98.888C5.99216 98.888 6.63216 99.0213 7.1975 99.288C7.7735 99.544 8.25883 99.8853 8.6535 100.312C9.04816 100.739 9.33083 101.213 9.5015 101.736L8.3815 102.184C8.1255 101.48 7.7255 100.947 7.1815 100.584C6.64816 100.221 6.01883 100.04 5.2935 100.04C4.83483 100.04 4.4295 100.12 4.0775 100.28C3.73616 100.44 3.4695 100.669 3.2775 100.968C3.0855 101.267 2.9895 101.619 2.9895 102.024C2.9895 102.515 3.14416 102.957 3.4535 103.352C3.76283 103.736 4.2375 104.024 4.8775 104.216L6.7655 104.776C7.70416 105.053 8.4135 105.453 8.8935 105.976C9.3735 106.499 9.6135 107.155 9.6135 107.944C9.6135 108.584 9.44816 109.149 9.1175 109.64C8.7975 110.12 8.34416 110.499 7.7575 110.776C7.1815 111.053 6.51483 111.192 5.7575 111.192ZM15.8132 111.192C15.0132 111.192 14.2879 111 13.6372 110.616C12.9972 110.221 12.4906 109.683 12.1172 109C11.7439 108.317 11.5572 107.544 11.5572 106.68C11.5572 105.816 11.7386 105.053 12.1012 104.392C12.4639 103.72 12.9546 103.192 13.5732 102.808C14.2026 102.424 14.9066 102.232 15.6852 102.232C16.3039 102.232 16.8532 102.349 17.3332 102.584C17.8239 102.808 18.2399 103.117 18.5812 103.512C18.9226 103.896 19.1839 104.333 19.3652 104.824C19.5466 105.304 19.6372 105.8 19.6372 106.312C19.6372 106.419 19.6319 106.541 19.6212 106.68C19.6106 106.808 19.5946 106.941 19.5732 107.08H12.3252V105.96H18.8852L18.3092 106.44C18.4052 105.853 18.3359 105.331 18.1012 104.872C17.8772 104.403 17.5519 104.035 17.1252 103.768C16.6986 103.491 16.2186 103.352 15.6852 103.352C15.1519 103.352 14.6559 103.491 14.1972 103.768C13.7492 104.045 13.3972 104.435 13.1412 104.936C12.8852 105.427 12.7839 106.013 12.8372 106.696C12.7839 107.379 12.8906 107.976 13.1572 108.488C13.4346 108.989 13.8079 109.379 14.2772 109.656C14.7572 109.933 15.2692 110.072 15.8132 110.072C16.4426 110.072 16.9706 109.923 17.3972 109.624C17.8239 109.325 18.1706 108.952 18.4372 108.504L19.4612 109.048C19.2906 109.432 19.0292 109.789 18.6772 110.12C18.3252 110.44 17.9039 110.701 17.4132 110.904C16.9332 111.096 16.3999 111.192 15.8132 111.192ZM21.753 111V102.424H22.953V103.832L22.793 103.624C22.9957 103.219 23.2997 102.899 23.705 102.664C24.121 102.429 24.6223 102.312 25.209 102.312H25.753V103.512H25.001C24.3823 103.512 23.8863 103.704 23.513 104.088C23.1397 104.472 22.953 105.016 22.953 105.72V111H21.753ZM29.4472 111L26.1032 102.424H27.4472L30.2632 109.944H29.8312L32.6632 102.424H34.0232L30.6472 111H29.4472ZM35.4249 111V102.424H36.6249V111H35.4249ZM35.4249 100.84V99.08H36.6249V100.84H35.4249ZM43.0011 111.192C42.1585 111.192 41.4171 110.995 40.7771 110.6C40.1371 110.205 39.6358 109.672 39.2731 109C38.9105 108.317 38.7291 107.549 38.7291 106.696C38.7291 105.843 38.9105 105.08 39.2731 104.408C39.6358 103.736 40.1371 103.208 40.7771 102.824C41.4171 102.429 42.1585 102.232 43.0011 102.232C43.5345 102.232 44.0358 102.328 44.5051 102.52C44.9745 102.712 45.3905 102.973 45.7531 103.304C46.1158 103.624 46.3878 103.997 46.5691 104.424L45.4811 104.984C45.2678 104.525 44.9425 104.152 44.5051 103.864C44.0678 103.576 43.5665 103.432 43.0011 103.432C42.4358 103.432 41.9238 103.576 41.4651 103.864C41.0171 104.141 40.6598 104.531 40.3931 105.032C40.1371 105.523 40.0091 106.083 40.0091 106.712C40.0091 107.331 40.1371 107.891 40.3931 108.392C40.6598 108.883 41.0171 109.272 41.4651 109.56C41.9238 109.848 42.4358 109.992 43.0011 109.992C43.5665 109.992 44.0625 109.848 44.4891 109.56C44.9265 109.272 45.2571 108.888 45.4811 108.408L46.5691 109C46.3878 109.416 46.1158 109.789 45.7531 110.12C45.3905 110.451 44.9745 110.712 44.5051 110.904C44.0358 111.096 43.5345 111.192 43.0011 111.192ZM52.5789 111.192C51.7789 111.192 51.0535 111 50.4029 110.616C49.7629 110.221 49.2562 109.683 48.8829 109C48.5095 108.317 48.3229 107.544 48.3229 106.68C48.3229 105.816 48.5042 105.053 48.8669 104.392C49.2295 103.72 49.7202 103.192 50.3389 102.808C50.9682 102.424 51.6722 102.232 52.4509 102.232C53.0695 102.232 53.6189 102.349 54.0989 102.584C54.5895 102.808 55.0055 103.117 55.3469 103.512C55.6882 103.896 55.9495 104.333 56.1309 104.824C56.3122 105.304 56.4029 105.8 56.4029 106.312C56.4029 106.419 56.3975 106.541 56.3869 106.68C56.3762 106.808 56.3602 106.941 56.3389 107.08H49.0909V105.96H55.6509L55.0749 106.44C55.1709 105.853 55.1015 105.331 54.8669 104.872C54.6429 104.403 54.3175 104.035 53.8909 103.768C53.4642 103.491 52.9842 103.352 52.4509 103.352C51.9175 103.352 51.4215 103.491 50.9629 103.768C50.5149 104.045 50.1629 104.435 49.9069 104.936C49.6509 105.427 49.5495 106.013 49.6029 106.696C49.5495 107.379 49.6562 107.976 49.9229 108.488C50.2002 108.989 50.5735 109.379 51.0429 109.656C51.5229 109.933 52.0349 110.072 52.5789 110.072C53.2082 110.072 53.7362 109.923 54.1629 109.624C54.5895 109.325 54.9362 108.952 55.2029 108.504L56.2269 109.048C56.0562 109.432 55.7949 109.789 55.4429 110.12C55.0909 110.44 54.6695 110.701 54.1789 110.904C53.6989 111.096 53.1655 111.192 52.5789 111.192ZM61.4946 111.192C60.6733 111.192 59.9533 110.984 59.3346 110.568C58.716 110.152 58.268 109.587 57.9906 108.872L58.9986 108.392C59.244 108.915 59.5853 109.331 60.0226 109.64C60.4706 109.949 60.9613 110.104 61.4946 110.104C62.0066 110.104 62.4386 109.981 62.7906 109.736C63.1426 109.48 63.3186 109.149 63.3186 108.744C63.3186 108.445 63.2333 108.211 63.0626 108.04C62.892 107.859 62.6946 107.72 62.4706 107.624C62.2466 107.528 62.0493 107.459 61.8786 107.416L60.6466 107.064C59.8573 106.84 59.2866 106.525 58.9346 106.12C58.5826 105.715 58.4066 105.245 58.4066 104.712C58.4066 104.211 58.5346 103.773 58.7906 103.4C59.0466 103.027 59.3933 102.739 59.8306 102.536C60.268 102.333 60.7533 102.232 61.2866 102.232C62.012 102.232 62.668 102.424 63.2546 102.808C63.852 103.181 64.2733 103.704 64.5186 104.376L63.4946 104.856C63.2813 104.376 62.972 104.003 62.5666 103.736C62.172 103.459 61.7293 103.32 61.2386 103.32C60.7586 103.32 60.3746 103.443 60.0866 103.688C59.7986 103.933 59.6546 104.243 59.6546 104.616C59.6546 104.904 59.7293 105.133 59.8786 105.304C60.028 105.475 60.1986 105.603 60.3906 105.688C60.5933 105.773 60.7693 105.837 60.9186 105.88L62.3426 106.296C63.036 106.499 63.5746 106.813 63.9586 107.24C64.3533 107.667 64.5506 108.168 64.5506 108.744C64.5506 109.213 64.4173 109.635 64.1506 110.008C63.8946 110.381 63.5373 110.675 63.0786 110.888C62.62 111.091 62.092 111.192 61.4946 111.192Z" fill="#1D1C31" fill-opacity="0.6"/>
<path d="M255.509 66L259.861 54.08H261.237L265.589 66H264.245L263.221 63.088H257.893L256.853 66H255.509ZM258.309 61.888H262.773L260.357 55.04H260.741L258.309 61.888ZM271.339 66.192C270.603 66.192 269.936 66.0267 269.339 65.696C268.752 65.3547 268.31 64.8747 268.011 64.256L268.203 64.08V66H267.003V53.888H268.203V59.344L268.011 59.008C268.352 58.464 268.806 58.032 269.371 57.712C269.947 57.392 270.603 57.232 271.339 57.232C272.15 57.232 272.87 57.4293 273.499 57.824C274.139 58.208 274.64 58.736 275.003 59.408C275.376 60.08 275.563 60.848 275.563 61.712C275.563 62.5653 275.376 63.3333 275.003 64.016C274.64 64.688 274.139 65.2213 273.499 65.616C272.87 66 272.15 66.192 271.339 66.192ZM271.275 64.992C271.851 64.992 272.363 64.848 272.811 64.56C273.27 64.272 273.627 63.8827 273.883 63.392C274.15 62.8907 274.283 62.3307 274.283 61.712C274.283 61.0827 274.15 60.5227 273.883 60.032C273.627 59.5413 273.27 59.152 272.811 58.864C272.363 58.576 271.851 58.432 271.275 58.432C270.699 58.432 270.176 58.576 269.707 58.864C269.248 59.152 268.88 59.5467 268.603 60.048C268.336 60.5387 268.203 61.0933 268.203 61.712C268.203 62.3307 268.336 62.8907 268.603 63.392C268.88 63.8827 269.248 64.272 269.707 64.56C270.176 64.848 270.699 64.992 271.275 64.992ZM281.691 66.192C280.88 66.192 280.144 66 279.483 65.616C278.822 65.2213 278.294 64.688 277.899 64.016C277.515 63.3333 277.323 62.56 277.323 61.696C277.323 60.8427 277.515 60.08 277.899 59.408C278.283 58.736 278.8 58.208 279.451 57.824C280.112 57.4293 280.859 57.232 281.691 57.232C282.523 57.232 283.264 57.424 283.915 57.808C284.576 58.192 285.094 58.72 285.467 59.392C285.851 60.064 286.043 60.832 286.043 61.696C286.043 62.5707 285.846 63.3493 285.451 64.032C285.056 64.704 284.528 65.232 283.867 65.616C283.216 66 282.491 66.192 281.691 66.192ZM281.691 64.992C282.267 64.992 282.784 64.848 283.243 64.56C283.712 64.272 284.08 63.8773 284.347 63.376C284.624 62.8747 284.763 62.3147 284.763 61.696C284.763 61.0773 284.624 60.5227 284.347 60.032C284.08 59.5413 283.712 59.152 283.243 58.864C282.784 58.576 282.267 58.432 281.691 58.432C281.115 58.432 280.592 58.576 280.123 58.864C279.664 59.152 279.296 59.5413 279.019 60.032C278.742 60.5227 278.603 61.0773 278.603 61.696C278.603 62.3147 278.742 62.8747 279.019 63.376C279.296 63.8773 279.664 64.272 280.123 64.56C280.592 64.848 281.115 64.992 281.691 64.992ZM291.199 66.192C290.602 66.192 290.058 66.0533 289.567 65.776C289.077 65.488 288.687 65.0933 288.399 64.592C288.122 64.08 287.983 63.4933 287.983 62.832V57.424H289.183V62.688C289.183 63.1467 289.274 63.552 289.455 63.904C289.647 64.2453 289.909 64.512 290.239 64.704C290.581 64.896 290.97 64.992 291.407 64.992C291.845 64.992 292.234 64.896 292.575 64.704C292.917 64.5013 293.183 64.2187 293.375 63.856C293.567 63.4827 293.663 63.04 293.663 62.528V57.424H294.863V66H293.663V64.336L293.935 64.4C293.733 64.9547 293.386 65.392 292.895 65.712C292.405 66.032 291.839 66.192 291.199 66.192ZM300.611 66.096C299.843 66.096 299.251 65.872 298.835 65.424C298.419 64.976 298.211 64.336 298.211 63.504V58.624H296.627V57.424H297.027C297.39 57.424 297.678 57.3067 297.891 57.072C298.104 56.8267 298.211 56.5227 298.211 56.16V55.44H299.411V57.424H301.299V58.624H299.411V63.504C299.411 63.792 299.454 64.048 299.539 64.272C299.624 64.4853 299.768 64.656 299.971 64.784C300.184 64.912 300.467 64.976 300.819 64.976C300.904 64.976 301.006 64.9707 301.123 64.96C301.24 64.9493 301.342 64.9387 301.427 64.928V66C301.299 66.032 301.155 66.0533 300.995 66.064C300.835 66.0853 300.707 66.096 300.611 66.096ZM309.293 66.192C308.696 66.192 308.152 66.0533 307.661 65.776C307.17 65.488 306.781 65.0933 306.493 64.592C306.216 64.08 306.077 63.4933 306.077 62.832V57.424H307.277V62.688C307.277 63.1467 307.368 63.552 307.549 63.904C307.741 64.2453 308.002 64.512 308.333 64.704C308.674 64.896 309.064 64.992 309.501 64.992C309.938 64.992 310.328 64.896 310.669 64.704C311.01 64.5013 311.277 64.2187 311.469 63.856C311.661 63.4827 311.757 63.04 311.757 62.528V57.424H312.957V66H311.757V64.336L312.029 64.4C311.826 64.9547 311.48 65.392 310.989 65.712C310.498 66.032 309.933 66.192 309.293 66.192ZM318.401 66.192C317.58 66.192 316.86 65.984 316.241 65.568C315.622 65.152 315.174 64.5867 314.897 63.872L315.905 63.392C316.15 63.9147 316.492 64.3307 316.929 64.64C317.377 64.9493 317.868 65.104 318.401 65.104C318.913 65.104 319.345 64.9813 319.697 64.736C320.049 64.48 320.225 64.1493 320.225 63.744C320.225 63.4453 320.14 63.2107 319.969 63.04C319.798 62.8587 319.601 62.72 319.377 62.624C319.153 62.528 318.956 62.4587 318.785 62.416L317.553 62.064C316.764 61.84 316.193 61.5253 315.841 61.12C315.489 60.7147 315.313 60.2453 315.313 59.712C315.313 59.2107 315.441 58.7733 315.697 58.4C315.953 58.0267 316.3 57.7387 316.737 57.536C317.174 57.3333 317.66 57.232 318.193 57.232C318.918 57.232 319.574 57.424 320.161 57.808C320.758 58.1813 321.18 58.704 321.425 59.376L320.401 59.856C320.188 59.376 319.878 59.0027 319.473 58.736C319.078 58.4587 318.636 58.32 318.145 58.32C317.665 58.32 317.281 58.4427 316.993 58.688C316.705 58.9333 316.561 59.2427 316.561 59.616C316.561 59.904 316.636 60.1333 316.785 60.304C316.934 60.4747 317.105 60.6027 317.297 60.688C317.5 60.7733 317.676 60.8373 317.825 60.88L319.249 61.296C319.942 61.4987 320.481 61.8133 320.865 62.24C321.26 62.6667 321.457 63.168 321.457 63.744C321.457 64.2133 321.324 64.6347 321.057 65.008C320.801 65.3813 320.444 65.6747 319.985 65.888C319.526 66.0907 318.998 66.192 318.401 66.192Z" fill="#1D1C31" fill-opacity="0.6"/>
<path d="M7.3575 156.192C6.5255 156.192 5.74683 156.043 5.0215 155.744C4.30683 155.435 3.6775 155.008 3.1335 154.464C2.5895 153.909 2.16283 153.259 1.8535 152.512C1.54416 151.755 1.3895 150.928 1.3895 150.032C1.3895 149.136 1.54416 148.315 1.8535 147.568C2.16283 146.811 2.5895 146.16 3.1335 145.616C3.6775 145.061 4.30683 144.635 5.0215 144.336C5.74683 144.037 6.5255 143.888 7.3575 143.888C8.1895 143.888 8.96283 144.043 9.6775 144.352C10.4028 144.651 11.0375 145.077 11.5815 145.632C12.1255 146.176 12.5522 146.821 12.8615 147.568C13.1708 148.315 13.3255 149.136 13.3255 150.032C13.3255 150.928 13.1708 151.755 12.8615 152.512C12.5522 153.259 12.1255 153.909 11.5815 154.464C11.0375 155.008 10.4028 155.435 9.6775 155.744C8.96283 156.043 8.1895 156.192 7.3575 156.192ZM7.3575 154.992C8.05083 154.992 8.68016 154.864 9.2455 154.608C9.8215 154.352 10.3175 153.995 10.7335 153.536C11.1495 153.077 11.4695 152.549 11.6935 151.952C11.9282 151.355 12.0455 150.715 12.0455 150.032C12.0455 149.36 11.9282 148.725 11.6935 148.128C11.4695 147.531 11.1495 147.003 10.7335 146.544C10.3175 146.085 9.8215 145.728 9.2455 145.472C8.68016 145.216 8.05083 145.088 7.3575 145.088C6.66416 145.088 6.0295 145.216 5.4535 145.472C4.88816 145.728 4.3975 146.085 3.9815 146.544C3.5655 147.003 3.24016 147.531 3.0055 148.128C2.7815 148.725 2.6695 149.36 2.6695 150.032C2.6695 150.715 2.7815 151.355 3.0055 151.952C3.24016 152.549 3.5655 153.077 3.9815 153.536C4.3975 153.995 4.8935 154.352 5.4695 154.608C6.0455 154.864 6.67483 154.992 7.3575 154.992ZM15.6124 159.2V147.424H16.8124V149.344L16.6204 149.008C16.9617 148.464 17.415 148.032 17.9804 147.712C18.5564 147.392 19.2124 147.232 19.9484 147.232C20.759 147.232 21.479 147.429 22.1084 147.824C22.7484 148.208 23.2497 148.736 23.6124 149.408C23.9857 150.08 24.1724 150.848 24.1724 151.712C24.1724 152.565 23.9857 153.333 23.6124 154.016C23.2497 154.688 22.7484 155.221 22.1084 155.616C21.479 156 20.759 156.192 19.9484 156.192C19.2124 156.192 18.5457 156.027 17.9484 155.696C17.3617 155.355 16.919 154.875 16.6204 154.256L16.8124 154.08V159.2H15.6124ZM19.8844 154.992C20.4604 154.992 20.9724 154.848 21.4204 154.56C21.879 154.272 22.2364 153.883 22.4924 153.392C22.759 152.891 22.8924 152.331 22.8924 151.712C22.8924 151.083 22.759 150.523 22.4924 150.032C22.2364 149.541 21.879 149.152 21.4204 148.864C20.9724 148.576 20.4604 148.432 19.8844 148.432C19.3084 148.432 18.7857 148.576 18.3164 148.864C17.8577 149.152 17.4897 149.547 17.2124 150.048C16.9457 150.539 16.8124 151.093 16.8124 151.712C16.8124 152.331 16.9457 152.891 17.2124 153.392C17.4897 153.883 17.8577 154.272 18.3164 154.56C18.7857 154.848 19.3084 154.992 19.8844 154.992ZM30.1882 156.192C29.3882 156.192 28.6629 156 28.0122 155.616C27.3722 155.221 26.8656 154.683 26.4922 154C26.1189 153.317 25.9322 152.544 25.9322 151.68C25.9322 150.816 26.1136 150.053 26.4762 149.392C26.8389 148.72 27.3296 148.192 27.9482 147.808C28.5776 147.424 29.2816 147.232 30.0602 147.232C30.6789 147.232 31.2282 147.349 31.7082 147.584C32.1989 147.808 32.6149 148.117 32.9562 148.512C33.2976 148.896 33.5589 149.333 33.7402 149.824C33.9216 150.304 34.0122 150.8 34.0122 151.312C34.0122 151.419 34.0069 151.541 33.9962 151.68C33.9856 151.808 33.9696 151.941 33.9482 152.08H26.7002V150.96H33.2602L32.6842 151.44C32.7802 150.853 32.7109 150.331 32.4762 149.872C32.2522 149.403 31.9269 149.035 31.5002 148.768C31.0736 148.491 30.5936 148.352 30.0602 148.352C29.5269 148.352 29.0309 148.491 28.5722 148.768C28.1242 149.045 27.7722 149.435 27.5162 149.936C27.2602 150.427 27.1589 151.013 27.2122 151.696C27.1589 152.379 27.2656 152.976 27.5322 153.488C27.8096 153.989 28.1829 154.379 28.6522 154.656C29.1322 154.933 29.6442 155.072 30.1882 155.072C30.8176 155.072 31.3456 154.923 31.7722 154.624C32.1989 154.325 32.5456 153.952 32.8122 153.504L33.8362 154.048C33.6656 154.432 33.4042 154.789 33.0522 155.12C32.7002 155.44 32.2789 155.701 31.7882 155.904C31.3082 156.096 30.7749 156.192 30.1882 156.192ZM36.128 156V147.424H37.328V149.088L37.056 149.024C37.2693 148.469 37.616 148.032 38.096 147.712C38.5867 147.392 39.152 147.232 39.792 147.232C40.4 147.232 40.944 147.371 41.424 147.648C41.9147 147.925 42.2987 148.309 42.576 148.8C42.864 149.28 43.008 149.824 43.008 150.432V156H41.808V150.896C41.808 150.373 41.712 149.931 41.52 149.568C41.3387 149.205 41.0773 148.928 40.736 148.736C40.4053 148.533 40.0213 148.432 39.584 148.432C39.1467 148.432 38.7573 148.533 38.416 148.736C38.0747 148.928 37.808 149.211 37.616 149.584C37.424 149.947 37.328 150.384 37.328 150.896V156H36.128ZM48.1946 156V144.08H53.2026C53.8746 144.08 54.456 144.208 54.9466 144.464C55.448 144.709 55.832 145.056 56.0986 145.504C56.376 145.952 56.5146 146.475 56.5146 147.072C56.5146 147.691 56.36 148.24 56.0506 148.72C55.752 149.189 55.32 149.547 54.7546 149.792L54.7386 149.408C55.208 149.579 55.608 149.819 55.9386 150.128C56.28 150.437 56.5413 150.8 56.7226 151.216C56.904 151.621 56.9946 152.059 56.9946 152.528C56.9946 153.595 56.6533 154.443 55.9706 155.072C55.2986 155.691 54.3813 156 53.2186 156H48.1946ZM49.4746 154.8H53.2186C53.976 154.8 54.5786 154.603 55.0266 154.208C55.4853 153.803 55.7146 153.248 55.7146 152.544C55.7146 151.851 55.4853 151.301 55.0266 150.896C54.5786 150.48 53.976 150.272 53.2186 150.272H49.4746V154.8ZM49.4746 149.12H53.1066C53.7466 149.12 54.2586 148.933 54.6426 148.56C55.0373 148.187 55.2346 147.707 55.2346 147.12C55.2346 146.523 55.0373 146.069 54.6426 145.76C54.2586 145.44 53.7466 145.28 53.1066 145.28H49.4746V149.12ZM61.5924 156.192C61.0484 156.192 60.563 156.091 60.1364 155.888C59.7097 155.675 59.3737 155.387 59.1284 155.024C58.883 154.661 58.7604 154.245 58.7604 153.776C58.7604 153.328 58.8564 152.923 59.0484 152.56C59.2404 152.187 59.539 151.872 59.9444 151.616C60.3497 151.36 60.867 151.179 61.4964 151.072L64.8564 150.512V151.6L61.7844 152.112C61.1657 152.219 60.7177 152.416 60.4404 152.704C60.1737 152.992 60.0404 153.333 60.0404 153.728C60.0404 154.112 60.1897 154.437 60.4884 154.704C60.7977 154.971 61.1924 155.104 61.6724 155.104C62.259 155.104 62.771 154.981 63.2084 154.736C63.6457 154.48 63.987 154.139 64.2324 153.712C64.4777 153.285 64.6004 152.811 64.6004 152.288V150.112C64.6004 149.6 64.4137 149.184 64.0404 148.864C63.667 148.544 63.1817 148.384 62.5844 148.384C62.0617 148.384 61.603 148.517 61.2084 148.784C60.8137 149.04 60.5204 149.376 60.3284 149.792L59.2404 149.2C59.4004 148.837 59.651 148.507 59.9924 148.208C60.3444 147.909 60.7444 147.675 61.1924 147.504C61.6404 147.323 62.1044 147.232 62.5844 147.232C63.2137 147.232 63.7684 147.355 64.2484 147.6C64.739 147.845 65.1177 148.187 65.3844 148.624C65.6617 149.051 65.8004 149.547 65.8004 150.112V156H64.6004V154.288L64.7764 154.464C64.627 154.784 64.3924 155.077 64.0724 155.344C63.763 155.6 63.395 155.808 62.9684 155.968C62.5524 156.117 62.0937 156.192 61.5924 156.192ZM68.2686 156V147.424H69.4686V149.088L69.1966 149.024C69.41 148.469 69.7566 148.032 70.2366 147.712C70.7273 147.392 71.2926 147.232 71.9326 147.232C72.5406 147.232 73.0846 147.371 73.5646 147.648C74.0553 147.925 74.4393 148.309 74.7166 148.8C75.0046 149.28 75.1486 149.824 75.1486 150.432V156H73.9486V150.896C73.9486 150.373 73.8526 149.931 73.6606 149.568C73.4793 149.205 73.218 148.928 72.8766 148.736C72.546 148.533 72.162 148.432 71.7246 148.432C71.2873 148.432 70.898 148.533 70.5566 148.736C70.2153 148.928 69.9486 149.211 69.7566 149.584C69.5646 149.947 69.4686 150.384 69.4686 150.896V156H68.2686ZM77.4405 156V143.888H78.6405V152.368L78.1285 152.288L82.9445 147.424H84.4965L81.1365 150.864L84.8005 156H83.3605L79.9205 151.248L80.6885 151.312L78.2405 153.84L78.6405 152.848V156H77.4405ZM87.8689 156L92.2209 144.08H93.5969L97.9489 156H96.6049L95.5809 153.088H90.2529L89.2129 156H87.8689ZM90.6689 151.888H95.1329L92.7169 145.04H93.1009L90.6689 151.888ZM102.97 156.192C102.127 156.192 101.386 155.995 100.746 155.6C100.106 155.205 99.6045 154.672 99.2419 154C98.8792 153.317 98.6979 152.549 98.6979 151.696C98.6979 150.843 98.8792 150.08 99.2419 149.408C99.6045 148.736 100.106 148.208 100.746 147.824C101.386 147.429 102.127 147.232 102.97 147.232C103.503 147.232 104.005 147.328 104.474 147.52C104.943 147.712 105.359 147.973 105.722 148.304C106.085 148.624 106.357 148.997 106.538 149.424L105.45 149.984C105.237 149.525 104.911 149.152 104.474 148.864C104.037 148.576 103.535 148.432 102.97 148.432C102.405 148.432 101.893 148.576 101.434 148.864C100.986 149.141 100.629 149.531 100.362 150.032C100.106 150.523 99.9779 151.083 99.9779 151.712C99.9779 152.331 100.106 152.891 100.362 153.392C100.629 153.883 100.986 154.272 101.434 154.56C101.893 154.848 102.405 154.992 102.97 154.992C103.535 154.992 104.031 154.848 104.458 154.56C104.895 154.272 105.226 153.888 105.45 153.408L106.538 154C106.357 154.416 106.085 154.789 105.722 155.12C105.359 155.451 104.943 155.712 104.474 155.904C104.005 156.096 103.503 156.192 102.97 156.192ZM112.564 156.192C111.721 156.192 110.98 155.995 110.34 155.6C109.7 155.205 109.198 154.672 108.836 154C108.473 153.317 108.292 152.549 108.292 151.696C108.292 150.843 108.473 150.08 108.836 149.408C109.198 148.736 109.7 148.208 110.34 147.824C110.98 147.429 111.721 147.232 112.564 147.232C113.097 147.232 113.598 147.328 114.068 147.52C114.537 147.712 114.953 147.973 115.316 148.304C115.678 148.624 115.95 148.997 116.132 149.424L115.044 149.984C114.83 149.525 114.505 149.152 114.068 148.864C113.63 148.576 113.129 148.432 112.564 148.432C111.998 148.432 111.486 148.576 111.028 148.864C110.58 149.141 110.222 149.531 109.956 150.032C109.7 150.523 109.572 151.083 109.572 151.712C109.572 152.331 109.7 152.891 109.956 153.392C110.222 153.883 110.58 154.272 111.028 154.56C111.486 154.848 111.998 154.992 112.564 154.992C113.129 154.992 113.625 154.848 114.052 154.56C114.489 154.272 114.82 153.888 115.044 153.408L116.132 154C115.95 154.416 115.678 154.789 115.316 155.12C114.953 155.451 114.537 155.712 114.068 155.904C113.598 156.096 113.097 156.192 112.564 156.192ZM122.253 156.192C121.443 156.192 120.707 156 120.045 155.616C119.384 155.221 118.856 154.688 118.461 154.016C118.077 153.333 117.885 152.56 117.885 151.696C117.885 150.843 118.077 150.08 118.461 149.408C118.845 148.736 119.363 148.208 120.013 147.824C120.675 147.429 121.421 147.232 122.253 147.232C123.085 147.232 123.827 147.424 124.477 147.808C125.139 148.192 125.656 148.72 126.029 149.392C126.413 150.064 126.605 150.832 126.605 151.696C126.605 152.571 126.408 153.349 126.013 154.032C125.619 154.704 125.091 155.232 124.429 155.616C123.779 156 123.053 156.192 122.253 156.192ZM122.253 154.992C122.829 154.992 123.347 154.848 123.805 154.56C124.275 154.272 124.643 153.877 124.909 153.376C125.187 152.875 125.325 152.315 125.325 151.696C125.325 151.077 125.187 150.523 124.909 150.032C124.643 149.541 124.275 149.152 123.805 148.864C123.347 148.576 122.829 148.432 122.253 148.432C121.677 148.432 121.155 148.576 120.685 148.864C120.227 149.152 119.859 149.541 119.581 150.032C119.304 150.523 119.165 151.077 119.165 151.696C119.165 152.315 119.304 152.875 119.581 153.376C119.859 153.877 120.227 154.272 120.685 154.56C121.155 154.848 121.677 154.992 122.253 154.992ZM131.762 156.192C131.164 156.192 130.62 156.053 130.13 155.776C129.639 155.488 129.25 155.093 128.962 154.592C128.684 154.08 128.546 153.493 128.546 152.832V147.424H129.746V152.688C129.746 153.147 129.836 153.552 130.018 153.904C130.21 154.245 130.471 154.512 130.802 154.704C131.143 154.896 131.532 154.992 131.97 154.992C132.407 154.992 132.796 154.896 133.138 154.704C133.479 154.501 133.746 154.219 133.938 153.856C134.13 153.483 134.226 153.04 134.226 152.528V147.424H135.426V156H134.226V154.336L134.498 154.4C134.295 154.955 133.948 155.392 133.458 155.712C132.967 156.032 132.402 156.192 131.762 156.192ZM137.894 156V147.424H139.094V149.088L138.822 149.024C139.035 148.469 139.382 148.032 139.862 147.712C140.352 147.392 140.918 147.232 141.558 147.232C142.166 147.232 142.71 147.371 143.19 147.648C143.68 147.925 144.064 148.309 144.342 148.8C144.63 149.28 144.774 149.824 144.774 150.432V156H143.574V150.896C143.574 150.373 143.478 149.931 143.286 149.568C143.104 149.205 142.843 148.928 142.502 148.736C142.171 148.533 141.787 148.432 141.35 148.432C140.912 148.432 140.523 148.533 140.182 148.736C139.84 148.928 139.574 149.211 139.382 149.584C139.19 149.947 139.094 150.384 139.094 150.896V156H137.894ZM150.345 156.096C149.577 156.096 148.985 155.872 148.569 155.424C148.153 154.976 147.945 154.336 147.945 153.504V148.624H146.361V147.424H146.761C147.124 147.424 147.412 147.307 147.625 147.072C147.839 146.827 147.945 146.523 147.945 146.16V145.44H149.145V147.424H151.033V148.624H149.145V153.504C149.145 153.792 149.188 154.048 149.273 154.272C149.359 154.485 149.503 154.656 149.705 154.784C149.919 154.912 150.201 154.976 150.553 154.976C150.639 154.976 150.74 154.971 150.857 154.96C150.975 154.949 151.076 154.939 151.161 154.928V156C151.033 156.032 150.889 156.053 150.729 156.064C150.569 156.085 150.441 156.096 150.345 156.096Z" fill="#1D1C31" fill-opacity="0.6"/>
<path d="M1.7735 21V6.1H4.3735L9.9535 13.68H8.7135L14.1735 6.1H16.7735V21H14.0335V9.2L15.0935 9.46L9.4335 17H9.1135L3.5935 9.46L4.4935 9.2V21H1.7735ZM24.5651 21.24C23.4451 21.24 22.4651 20.9867 21.6251 20.48C20.7851 19.9733 20.1317 19.2867 19.6651 18.42C19.1984 17.5533 18.9651 16.5933 18.9651 15.54C18.9651 14.4467 19.1984 13.48 19.6651 12.64C20.1451 11.7867 20.7917 11.1133 21.6051 10.62C22.4317 10.1267 23.3517 9.88 24.3651 9.88C25.2184 9.88 25.9651 10.02 26.6051 10.3C27.2584 10.58 27.8117 10.9667 28.2651 11.46C28.7184 11.9533 29.0651 12.52 29.3051 13.16C29.5451 13.7867 29.6651 14.4667 29.6651 15.2C29.6651 15.3867 29.6517 15.58 29.6251 15.78C29.6117 15.98 29.5784 16.1533 29.5251 16.3H21.1251V14.3H28.0451L26.8051 15.24C26.9251 14.6267 26.8917 14.08 26.7051 13.6C26.5317 13.12 26.2384 12.74 25.8251 12.46C25.4251 12.18 24.9384 12.04 24.3651 12.04C23.8184 12.04 23.3317 12.18 22.9051 12.46C22.4784 12.7267 22.1517 13.1267 21.9251 13.66C21.7117 14.18 21.6317 14.8133 21.6851 15.56C21.6317 16.2267 21.7184 16.82 21.9451 17.34C22.1851 17.8467 22.5317 18.24 22.9851 18.52C23.4517 18.8 23.9851 18.94 24.5851 18.94C25.1851 18.94 25.6917 18.8133 26.1051 18.56C26.5317 18.3067 26.8651 17.9667 27.1051 17.54L29.2251 18.58C29.0117 19.1 28.6784 19.56 28.2251 19.96C27.7717 20.36 27.2317 20.6733 26.6051 20.9C25.9917 21.1267 25.3117 21.24 24.5651 21.24ZM31.6512 21V10.12H34.1112V12.26L33.9112 11.88C34.1645 11.2267 34.5778 10.7333 35.1512 10.4C35.7378 10.0533 36.4178 9.88 37.1912 9.88C37.9912 9.88 38.6978 10.0533 39.3112 10.4C39.9378 10.7467 40.4245 11.2333 40.7712 11.86C41.1178 12.4733 41.2912 13.1867 41.2912 14V21H38.6712V14.62C38.6712 14.14 38.5778 13.7267 38.3912 13.38C38.2045 13.0333 37.9445 12.7667 37.6112 12.58C37.2912 12.38 36.9112 12.28 36.4712 12.28C36.0445 12.28 35.6645 12.38 35.3312 12.58C34.9978 12.7667 34.7378 13.0333 34.5512 13.38C34.3645 13.7267 34.2712 14.14 34.2712 14.62V21H31.6512ZM47.3866 21.24C46.5466 21.24 45.8133 21.0533 45.1866 20.68C44.5733 20.3067 44.1 19.7867 43.7666 19.12C43.4466 18.4533 43.2866 17.6733 43.2866 16.78V10.12H45.9066V16.56C45.9066 17.0133 45.9933 17.4133 46.1666 17.76C46.3533 18.0933 46.6133 18.36 46.9466 18.56C47.2933 18.7467 47.68 18.84 48.1066 18.84C48.5333 18.84 48.9133 18.7467 49.2466 18.56C49.58 18.36 49.84 18.0867 50.0266 17.74C50.2133 17.3933 50.3066 16.98 50.3066 16.5V10.12H52.9266V21H50.4466V18.86L50.6666 19.24C50.4133 19.9067 49.9933 20.4067 49.4066 20.74C48.8333 21.0733 48.16 21.24 47.3866 21.24Z" fill="#1D1C31"/>
<path d="M256.773 21V6.1H259.493V12.6H265.833V6.1H268.573V21H265.833V15H259.493V21H256.773ZM276.381 21.24C275.261 21.24 274.281 20.9867 273.441 20.48C272.601 19.9733 271.948 19.2867 271.481 18.42C271.015 17.5533 270.781 16.5933 270.781 15.54C270.781 14.4467 271.015 13.48 271.481 12.64C271.961 11.7867 272.608 11.1133 273.421 10.62C274.248 10.1267 275.168 9.88 276.181 9.88C277.035 9.88 277.781 10.02 278.421 10.3C279.075 10.58 279.628 10.9667 280.081 11.46C280.535 11.9533 280.881 12.52 281.121 13.16C281.361 13.7867 281.481 14.4667 281.481 15.2C281.481 15.3867 281.468 15.58 281.441 15.78C281.428 15.98 281.395 16.1533 281.341 16.3H272.941V14.3H279.861L278.621 15.24C278.741 14.6267 278.708 14.08 278.521 13.6C278.348 13.12 278.055 12.74 277.641 12.46C277.241 12.18 276.755 12.04 276.181 12.04C275.635 12.04 275.148 12.18 274.721 12.46C274.295 12.7267 273.968 13.1267 273.741 13.66C273.528 14.18 273.448 14.8133 273.501 15.56C273.448 16.2267 273.535 16.82 273.761 17.34C274.001 17.8467 274.348 18.24 274.801 18.52C275.268 18.8 275.801 18.94 276.401 18.94C277.001 18.94 277.508 18.8133 277.921 18.56C278.348 18.3067 278.681 17.9667 278.921 17.54L281.041 18.58C280.828 19.1 280.495 19.56 280.041 19.96C279.588 20.36 279.048 20.6733 278.421 20.9C277.808 21.1267 277.128 21.24 276.381 21.24ZM283.468 21V5.86H286.088V21H283.468ZM288.507 25V10.12H290.967V12.28L290.727 11.74C291.1 11.1533 291.607 10.7 292.247 10.38C292.887 10.0467 293.627 9.88 294.467 9.88C295.493 9.88 296.42 10.1333 297.247 10.64C298.073 11.1467 298.727 11.8267 299.207 12.68C299.7 13.5333 299.947 14.4933 299.947 15.56C299.947 16.6133 299.707 17.5733 299.227 18.44C298.747 19.3067 298.093 19.9933 297.267 20.5C296.44 20.9933 295.5 21.24 294.447 21.24C293.66 21.24 292.933 21.0867 292.267 20.78C291.613 20.46 291.093 20.0067 290.707 19.42L291.127 18.9V25H288.507ZM294.147 18.84C294.747 18.84 295.28 18.7 295.747 18.42C296.213 18.14 296.573 17.7533 296.827 17.26C297.093 16.7667 297.227 16.2 297.227 15.56C297.227 14.92 297.093 14.36 296.827 13.88C296.573 13.3867 296.213 13 295.747 12.72C295.28 12.4267 294.747 12.28 294.147 12.28C293.573 12.28 293.053 12.42 292.587 12.7C292.133 12.98 291.773 13.3733 291.507 13.88C291.253 14.3733 291.127 14.9333 291.127 15.56C291.127 16.2 291.253 16.7667 291.507 17.26C291.773 17.7533 292.133 18.14 292.587 18.42C293.053 18.7 293.573 18.84 294.147 18.84Z" fill="#1D1C31"/>
<path d="M262.181 110.192C261.339 110.192 260.565 110.043 259.861 109.744C259.157 109.435 258.544 109.008 258.021 108.464C257.509 107.909 257.109 107.259 256.821 106.512C256.533 105.765 256.389 104.944 256.389 104.048C256.389 103.152 256.533 102.331 256.821 101.584C257.109 100.837 257.509 100.187 258.021 99.632C258.544 99.0773 259.157 98.6507 259.861 98.352C260.565 98.0427 261.339 97.888 262.181 97.888C262.992 97.888 263.717 98.032 264.357 98.32C265.008 98.608 265.552 98.9813 265.989 99.44C266.437 99.888 266.757 100.363 266.949 100.864L265.749 101.392C265.451 100.699 264.992 100.144 264.373 99.728C263.765 99.3013 263.035 99.088 262.181 99.088C261.307 99.088 260.528 99.296 259.845 99.712C259.163 100.128 258.629 100.709 258.245 101.456C257.861 102.192 257.669 103.056 257.669 104.048C257.669 105.029 257.861 105.893 258.245 106.64C258.629 107.387 259.163 107.968 259.845 108.384C260.528 108.789 261.307 108.992 262.181 108.992C263.035 108.992 263.765 108.784 264.373 108.368C264.992 107.952 265.451 107.397 265.749 106.704L266.949 107.232C266.757 107.723 266.437 108.197 265.989 108.656C265.552 109.104 265.008 109.472 264.357 109.76C263.717 110.048 262.992 110.192 262.181 110.192ZM272.925 110.192C272.115 110.192 271.379 110 270.717 109.616C270.056 109.221 269.528 108.688 269.133 108.016C268.749 107.333 268.557 106.56 268.557 105.696C268.557 104.843 268.749 104.08 269.133 103.408C269.517 102.736 270.035 102.208 270.685 101.824C271.347 101.429 272.093 101.232 272.925 101.232C273.757 101.232 274.499 101.424 275.149 101.808C275.811 102.192 276.328 102.72 276.701 103.392C277.085 104.064 277.277 104.832 277.277 105.696C277.277 106.571 277.08 107.349 276.685 108.032C276.291 108.704 275.763 109.232 275.101 109.616C274.451 110 273.725 110.192 272.925 110.192ZM272.925 108.992C273.501 108.992 274.019 108.848 274.477 108.56C274.947 108.272 275.315 107.877 275.581 107.376C275.859 106.875 275.997 106.315 275.997 105.696C275.997 105.077 275.859 104.523 275.581 104.032C275.315 103.541 274.947 103.152 274.477 102.864C274.019 102.576 273.501 102.432 272.925 102.432C272.349 102.432 271.827 102.576 271.357 102.864C270.899 103.152 270.531 103.541 270.253 104.032C269.976 104.523 269.837 105.077 269.837 105.696C269.837 106.315 269.976 106.875 270.253 107.376C270.531 107.877 270.899 108.272 271.357 108.56C271.827 108.848 272.349 108.992 272.925 108.992ZM279.394 110V101.424H280.594V103.088L280.322 103.024C280.535 102.469 280.882 102.032 281.362 101.712C281.852 101.392 282.418 101.232 283.058 101.232C283.666 101.232 284.21 101.371 284.69 101.648C285.18 101.925 285.564 102.309 285.842 102.8C286.13 103.28 286.274 103.824 286.274 104.432V110H285.074V104.896C285.074 104.373 284.978 103.931 284.786 103.568C284.604 103.205 284.343 102.928 284.002 102.736C283.671 102.533 283.287 102.432 282.85 102.432C282.412 102.432 282.023 102.533 281.682 102.736C281.34 102.928 281.074 103.211 280.882 103.584C280.69 103.947 280.594 104.384 280.594 104.896V110H279.394ZM291.845 110.096C291.077 110.096 290.485 109.872 290.069 109.424C289.653 108.976 289.445 108.336 289.445 107.504V102.624H287.861V101.424H288.261C288.624 101.424 288.912 101.307 289.125 101.072C289.339 100.827 289.445 100.523 289.445 100.16V99.44H290.645V101.424H292.533V102.624H290.645V107.504C290.645 107.792 290.688 108.048 290.773 108.272C290.859 108.485 291.003 108.656 291.205 108.784C291.419 108.912 291.701 108.976 292.053 108.976C292.139 108.976 292.24 108.971 292.357 108.96C292.475 108.949 292.576 108.939 292.661 108.928V110C292.533 110.032 292.389 110.053 292.229 110.064C292.069 110.085 291.941 110.096 291.845 110.096ZM297.092 110.192C296.548 110.192 296.063 110.091 295.636 109.888C295.21 109.675 294.874 109.387 294.628 109.024C294.383 108.661 294.26 108.245 294.26 107.776C294.26 107.328 294.356 106.923 294.548 106.56C294.74 106.187 295.039 105.872 295.444 105.616C295.85 105.36 296.367 105.179 296.996 105.072L300.356 104.512V105.6L297.284 106.112C296.666 106.219 296.218 106.416 295.94 106.704C295.674 106.992 295.54 107.333 295.54 107.728C295.54 108.112 295.69 108.437 295.988 108.704C296.298 108.971 296.692 109.104 297.172 109.104C297.759 109.104 298.271 108.981 298.708 108.736C299.146 108.48 299.487 108.139 299.732 107.712C299.978 107.285 300.1 106.811 300.1 106.288V104.112C300.1 103.6 299.914 103.184 299.54 102.864C299.167 102.544 298.682 102.384 298.084 102.384C297.562 102.384 297.103 102.517 296.708 102.784C296.314 103.04 296.02 103.376 295.828 103.792L294.74 103.2C294.9 102.837 295.151 102.507 295.492 102.208C295.844 101.909 296.244 101.675 296.692 101.504C297.14 101.323 297.604 101.232 298.084 101.232C298.714 101.232 299.268 101.355 299.748 101.6C300.239 101.845 300.618 102.187 300.884 102.624C301.162 103.051 301.3 103.547 301.3 104.112V110H300.1V108.288L300.276 108.464C300.127 108.784 299.892 109.077 299.572 109.344C299.263 109.6 298.895 109.808 298.468 109.968C298.052 110.117 297.594 110.192 297.092 110.192ZM307.689 110.192C306.846 110.192 306.105 109.995 305.465 109.6C304.825 109.205 304.323 108.672 303.961 108C303.598 107.317 303.417 106.549 303.417 105.696C303.417 104.843 303.598 104.08 303.961 103.408C304.323 102.736 304.825 102.208 305.465 101.824C306.105 101.429 306.846 101.232 307.689 101.232C308.222 101.232 308.723 101.328 309.193 101.52C309.662 101.712 310.078 101.973 310.441 102.304C310.803 102.624 311.075 102.997 311.257 103.424L310.169 103.984C309.955 103.525 309.63 103.152 309.193 102.864C308.755 102.576 308.254 102.432 307.689 102.432C307.123 102.432 306.611 102.576 306.153 102.864C305.705 103.141 305.347 103.531 305.081 104.032C304.825 104.523 304.697 105.083 304.697 105.712C304.697 106.331 304.825 106.891 305.081 107.392C305.347 107.883 305.705 108.272 306.153 108.56C306.611 108.848 307.123 108.992 307.689 108.992C308.254 108.992 308.75 108.848 309.177 108.56C309.614 108.272 309.945 107.888 310.169 107.408L311.257 108C311.075 108.416 310.803 108.789 310.441 109.12C310.078 109.451 309.662 109.712 309.193 109.904C308.723 110.096 308.222 110.192 307.689 110.192ZM316.642 110.096C315.874 110.096 315.282 109.872 314.866 109.424C314.45 108.976 314.242 108.336 314.242 107.504V102.624H312.658V101.424H313.058C313.421 101.424 313.709 101.307 313.922 101.072C314.136 100.827 314.242 100.523 314.242 100.16V99.44H315.442V101.424H317.33V102.624H315.442V107.504C315.442 107.792 315.485 108.048 315.57 108.272C315.656 108.485 315.8 108.656 316.002 108.784C316.216 108.912 316.498 108.976 316.85 108.976C316.936 108.976 317.037 108.971 317.154 108.96C317.272 108.949 317.373 108.939 317.458 108.928V110C317.33 110.032 317.186 110.053 317.026 110.064C316.866 110.085 316.738 110.096 316.642 110.096Z" fill="#1D1C31" fill-opacity="0.6"/>
<path d="M260.757 154.192C260 154.192 259.312 154.048 258.693 153.76C258.075 153.472 257.552 153.088 257.125 152.608C256.699 152.117 256.395 151.579 256.213 150.992L257.365 150.56C257.643 151.371 258.075 151.989 258.661 152.416C259.248 152.832 259.947 153.04 260.757 153.04C261.269 153.04 261.717 152.96 262.101 152.8C262.496 152.629 262.8 152.395 263.013 152.096C263.227 151.797 263.333 151.451 263.333 151.056C263.333 150.469 263.173 150.016 262.853 149.696C262.533 149.376 262.075 149.131 261.477 148.96L259.333 148.32C258.491 148.075 257.84 147.664 257.381 147.088C256.933 146.512 256.709 145.856 256.709 145.12C256.709 144.491 256.864 143.936 257.173 143.456C257.483 142.965 257.904 142.581 258.437 142.304C258.981 142.027 259.595 141.888 260.277 141.888C260.992 141.888 261.632 142.021 262.197 142.288C262.773 142.544 263.259 142.885 263.653 143.312C264.048 143.739 264.331 144.213 264.501 144.736L263.381 145.184C263.125 144.48 262.725 143.947 262.181 143.584C261.648 143.221 261.019 143.04 260.293 143.04C259.835 143.04 259.429 143.12 259.077 143.28C258.736 143.44 258.469 143.669 258.277 143.968C258.085 144.267 257.989 144.619 257.989 145.024C257.989 145.515 258.144 145.957 258.453 146.352C258.763 146.736 259.237 147.024 259.877 147.216L261.765 147.776C262.704 148.053 263.413 148.453 263.893 148.976C264.373 149.499 264.613 150.155 264.613 150.944C264.613 151.584 264.448 152.149 264.117 152.64C263.797 153.12 263.344 153.499 262.757 153.776C262.181 154.053 261.515 154.192 260.757 154.192ZM269.949 154.192C269.352 154.192 268.808 154.053 268.317 153.776C267.827 153.488 267.437 153.093 267.149 152.592C266.872 152.08 266.733 151.493 266.733 150.832V145.424H267.933V150.688C267.933 151.147 268.024 151.552 268.205 151.904C268.397 152.245 268.659 152.512 268.989 152.704C269.331 152.896 269.72 152.992 270.157 152.992C270.595 152.992 270.984 152.896 271.325 152.704C271.667 152.501 271.933 152.219 272.125 151.856C272.317 151.483 272.413 151.04 272.413 150.528V145.424H273.613V154H272.413V152.336L272.685 152.4C272.483 152.955 272.136 153.392 271.645 153.712C271.155 154.032 270.589 154.192 269.949 154.192ZM276.081 157.2V145.424H277.281V147.344L277.089 147.008C277.43 146.464 277.884 146.032 278.449 145.712C279.025 145.392 279.681 145.232 280.417 145.232C281.228 145.232 281.948 145.429 282.577 145.824C283.217 146.208 283.718 146.736 284.081 147.408C284.454 148.08 284.641 148.848 284.641 149.712C284.641 150.565 284.454 151.333 284.081 152.016C283.718 152.688 283.217 153.221 282.577 153.616C281.948 154 281.228 154.192 280.417 154.192C279.681 154.192 279.014 154.027 278.417 153.696C277.83 153.355 277.388 152.875 277.089 152.256L277.281 152.08V157.2H276.081ZM280.353 152.992C280.929 152.992 281.441 152.848 281.889 152.56C282.348 152.272 282.705 151.883 282.961 151.392C283.228 150.891 283.361 150.331 283.361 149.712C283.361 149.083 283.228 148.523 282.961 148.032C282.705 147.541 282.348 147.152 281.889 146.864C281.441 146.576 280.929 146.432 280.353 146.432C279.777 146.432 279.254 146.576 278.785 146.864C278.326 147.152 277.958 147.547 277.681 148.048C277.414 148.539 277.281 149.093 277.281 149.712C277.281 150.331 277.414 150.891 277.681 151.392C277.958 151.883 278.326 152.272 278.785 152.56C279.254 152.848 279.777 152.992 280.353 152.992ZM286.753 157.2V145.424H287.953V147.344L287.761 147.008C288.102 146.464 288.556 146.032 289.121 145.712C289.697 145.392 290.353 145.232 291.089 145.232C291.9 145.232 292.62 145.429 293.249 145.824C293.889 146.208 294.39 146.736 294.753 147.408C295.126 148.08 295.313 148.848 295.313 149.712C295.313 150.565 295.126 151.333 294.753 152.016C294.39 152.688 293.889 153.221 293.249 153.616C292.62 154 291.9 154.192 291.089 154.192C290.353 154.192 289.686 154.027 289.089 153.696C288.502 153.355 288.06 152.875 287.761 152.256L287.953 152.08V157.2H286.753ZM291.025 152.992C291.601 152.992 292.113 152.848 292.561 152.56C293.02 152.272 293.377 151.883 293.633 151.392C293.9 150.891 294.033 150.331 294.033 149.712C294.033 149.083 293.9 148.523 293.633 148.032C293.377 147.541 293.02 147.152 292.561 146.864C292.113 146.576 291.601 146.432 291.025 146.432C290.449 146.432 289.926 146.576 289.457 146.864C288.998 147.152 288.63 147.547 288.353 148.048C288.086 148.539 287.953 149.093 287.953 149.712C287.953 150.331 288.086 150.891 288.353 151.392C288.63 151.883 288.998 152.272 289.457 152.56C289.926 152.848 290.449 152.992 291.025 152.992ZM301.441 154.192C300.63 154.192 299.894 154 299.233 153.616C298.572 153.221 298.044 152.688 297.649 152.016C297.265 151.333 297.073 150.56 297.073 149.696C297.073 148.843 297.265 148.08 297.649 147.408C298.033 146.736 298.55 146.208 299.201 145.824C299.862 145.429 300.609 145.232 301.441 145.232C302.273 145.232 303.014 145.424 303.665 145.808C304.326 146.192 304.844 146.72 305.217 147.392C305.601 148.064 305.793 148.832 305.793 149.696C305.793 150.571 305.596 151.349 305.201 152.032C304.806 152.704 304.278 153.232 303.617 153.616C302.966 154 302.241 154.192 301.441 154.192ZM301.441 152.992C302.017 152.992 302.534 152.848 302.993 152.56C303.462 152.272 303.83 151.877 304.097 151.376C304.374 150.875 304.513 150.315 304.513 149.696C304.513 149.077 304.374 148.523 304.097 148.032C303.83 147.541 303.462 147.152 302.993 146.864C302.534 146.576 302.017 146.432 301.441 146.432C300.865 146.432 300.342 146.576 299.873 146.864C299.414 147.152 299.046 147.541 298.769 148.032C298.492 148.523 298.353 149.077 298.353 149.696C298.353 150.315 298.492 150.875 298.769 151.376C299.046 151.877 299.414 152.272 299.873 152.56C300.342 152.848 300.865 152.992 301.441 152.992ZM307.909 154V145.424H309.109V146.832L308.949 146.624C309.152 146.219 309.456 145.899 309.861 145.664C310.277 145.429 310.779 145.312 311.365 145.312H311.909V146.512H311.157C310.539 146.512 310.043 146.704 309.669 147.088C309.296 147.472 309.109 148.016 309.109 148.72V154H307.909ZM316.595 154.096C315.827 154.096 315.235 153.872 314.819 153.424C314.403 152.976 314.195 152.336 314.195 151.504V146.624H312.611V145.424H313.011C313.374 145.424 313.662 145.307 313.875 145.072C314.089 144.827 314.195 144.523 314.195 144.16V143.44H315.395V145.424H317.283V146.624H315.395V151.504C315.395 151.792 315.438 152.048 315.523 152.272C315.609 152.485 315.753 152.656 315.955 152.784C316.169 152.912 316.451 152.976 316.803 152.976C316.889 152.976 316.99 152.971 317.107 152.96C317.225 152.949 317.326 152.939 317.411 152.928V154C317.283 154.032 317.139 154.053 316.979 154.064C316.819 154.085 316.691 154.096 316.595 154.096Z" fill="#1D1C31" fill-opacity="0.6"/>
</svg>
